<?xml version="1.0" encoding="UTF-8"?>
<svg id="Layer_1" data-name="Layer 1" xmlns="http://www.w3.org/2000/svg" viewBox="0 0 35.73 31.69">
  <defs>
    <style>
      .cls-1 {
        fill: #cbf328;
      }

      .cls-1, .cls-2, .cls-3 {
        stroke-width: 0px;
      }

      .cls-2 {
        fill: #cbf329;
      }

      .cls-3 {
        fill: #cbf327;
      }
    </style>
  </defs>
  <path class="cls-2" d="m23.61,5.82c-4.81-.12-8.91,1.36-12.98,3.46-3.62,1.88-7.23.43-8.17-2.85C1.46,2.9,3.65,1.29,6.56.23c1.39-.51,2.76-.13,3.79.63,6.4,4.71,13.53,3.48,20.57,2.56,1.73-.23,3.22-.75,4.42.92.57.79.45,1.55-.14,2.24-1.37,1.62-2.88,1.02-4.49.36-2.33-.96-4.79-1.28-7.11-1.13Z"/>
  <path class="cls-3" d="m27.81,31.68c-1.39.09-2.76-.59-4.01-1.36-6.07-3.76-12.5-3.74-19.09-1.86-1.44.41-2.87,1.19-4.12-.21-.71-.79-.82-1.81-.09-2.7,1.16-1.43,2.69-.94,4.13-.68,7.11,1.27,14.09,1.76,20.62-2.36,2.18-1.38,4.51-.79,6.45.79,1.8,1.46,1.91,3.47,1.03,5.4-.88,1.91-2.5,3.03-4.93,2.98Z"/>
  <path class="cls-1" d="m17.42,11.57c2.85.35,4.61,1.63,4.71,4.35.1,2.97-1.7,4.66-4.51,4.71-2.59.04-4.36-1.59-4.48-4.26-.13-2.96,1.8-4.33,4.28-4.8Z"/>
</svg>